<svg width="48" height="48" viewBox="0 0 48 48" fill="none" xmlns="http://www.w3.org/2000/svg">
<path d="M18.5 7C17.5717 7 16.6815 7.36875 16.0251 8.02513C15.3687 8.6815 15 9.57174 15 10.5V12.5C15 12.8978 14.842 13.2794 14.5607 13.5607C14.2794 13.842 13.8978 14 13.5 14C13.1022 14 12.7206 13.842 12.4393 13.5607C12.158 13.2794 12 12.8978 12 12.5V10.5C12 8.77609 12.6848 7.12279 13.9038 5.90381C15.1228 4.68482 16.7761 4 18.5 4H20.5C20.8978 4 21.2794 4.15804 21.5607 4.43934C21.842 4.72064 22 5.10218 22 5.5C22 5.89782 21.842 6.27936 21.5607 6.56066C21.2794 6.84196 20.8978 7 20.5 7H18.5ZM24 5.5C24 5.10218 24.158 4.72064 24.4393 4.43934C24.7206 4.15804 25.1022 4 25.5 4H30.5C30.8978 4 31.2794 4.15804 31.5607 4.43934C31.842 4.72064 32 5.10218 32 5.5C32 5.89782 31.842 6.27936 31.5607 6.56066C31.2794 6.84196 30.8978 7 30.5 7H25.5C25.1022 7 24.7206 6.84196 24.4393 6.56066C24.158 6.27936 24 5.89782 24 5.5ZM25.5 33C25.1022 33 24.7206 33.158 24.4393 33.4393C24.158 33.7206 24 34.1022 24 34.5C24 34.8978 24.158 35.2794 24.4393 35.5607C24.7206 35.842 25.1022 36 25.5 36H30.5C30.8978 36 31.2794 35.842 31.5607 35.5607C31.842 35.2794 32 34.8978 32 34.5C32 34.1022 31.842 33.7206 31.5607 33.4393C31.2794 33.158 30.8978 33 30.5 33H25.5ZM13.5 16C13.8978 16 14.2794 16.158 14.5607 16.4393C14.842 16.7206 15 17.1022 15 17.5V22.5C15 22.8978 14.842 23.2794 14.5607 23.5607C14.2794 23.842 13.8978 24 13.5 24C13.1022 24 12.7206 23.842 12.4393 23.5607C12.158 23.2794 12 22.8978 12 22.5V17.5C12 17.1022 12.158 16.7206 12.4393 16.4393C12.7206 16.158 13.1022 16 13.5 16ZM44 17.5C44 17.1022 43.842 16.7206 43.5607 16.4393C43.2794 16.158 42.8978 16 42.5 16C42.1022 16 41.7206 16.158 41.4393 16.4393C41.158 16.7206 41 17.1022 41 17.5V22.5C41 22.8978 41.158 23.2794 41.4393 23.5607C41.7206 23.842 42.1022 24 42.5 24C42.8978 24 43.2794 23.842 43.5607 23.5607C43.842 23.2794 44 22.8978 44 22.5V17.5ZM37.5 33C38.4283 33 39.3185 32.6313 39.9749 31.9749C40.6312 31.3185 41 30.4283 41 29.5V27.5C41 27.1022 41.158 26.7206 41.4393 26.4393C41.7206 26.158 42.1022 26 42.5 26C42.8978 26 43.2794 26.158 43.5607 26.4393C43.842 26.7206 44 27.1022 44 27.5V29.5C44 30.3536 43.8319 31.1988 43.5052 31.9874C43.1786 32.7761 42.6998 33.4926 42.0962 34.0962C41.4926 34.6998 40.7761 35.1786 39.9874 35.5052C39.1988 35.8319 38.3536 36 37.5 36H35.5C35.1022 36 34.7206 35.842 34.4393 35.5607C34.158 35.2794 34 34.8978 34 34.5C34 34.1022 34.158 33.7206 34.4393 33.4393C34.7206 33.158 35.1022 33 35.5 33H37.5ZM41 10.5C41 9.57174 40.6312 8.6815 39.9749 8.02513C39.3185 7.36875 38.4283 7 37.5 7H35.5C35.1022 7 34.7206 6.84196 34.4393 6.56066C34.158 6.27936 34 5.89782 34 5.5C34 5.10218 34.158 4.72064 34.4393 4.43934C34.7206 4.15804 35.1022 4 35.5 4H37.5C38.3536 4 39.1988 4.16813 39.9874 4.49478C40.7761 4.82144 41.4926 5.30022 42.0962 5.90381C42.6998 6.50739 43.1786 7.22394 43.5052 8.01256C43.8319 8.80117 44 9.64641 44 10.5V12.5C44 12.8978 43.842 13.2794 43.5607 13.5607C43.2794 13.842 42.8978 14 42.5 14C42.1022 14 41.7206 13.842 41.4393 13.5607C41.158 13.2794 41 12.8978 41 12.5V10.5ZM18.5 33C17.5717 33 16.6815 32.6313 16.0251 31.9749C15.3687 31.3185 15 30.4283 15 29.5V27.5C15 27.1022 14.842 26.7206 14.5607 26.4393C14.2794 26.158 13.8978 26 13.5 26C13.1022 26 12.7206 26.158 12.4393 26.4393C12.158 26.7206 12 27.1022 12 27.5V29.5C12 31.2239 12.6848 32.8772 13.9038 34.0962C15.1228 35.3152 16.7761 36 18.5 36H20.5C20.8978 36 21.2794 35.842 21.5607 35.5607C21.842 35.2794 22 34.8978 22 34.5C22 34.1022 21.842 33.7206 21.5607 33.4393C21.2794 33.158 20.8978 33 20.5 33H18.5ZM4 18.5C4.00019 16.8628 4.61821 15.2859 5.73056 14.0846C6.8429 12.8833 8.36762 12.1459 10 12.02V30C10 32.1217 10.8429 34.1566 12.3431 35.6569C13.8434 37.1571 15.8783 38 18 38H35.98C35.8541 39.6324 35.1167 41.1571 33.9154 42.2694C32.7141 43.3818 31.1372 43.9998 29.5 44H15.5C13.9898 44 12.4944 43.7025 11.0991 43.1246C9.7039 42.5467 8.43615 41.6996 7.36827 40.6317C5.2116 38.4751 4 35.55 4 32.5V18.5Z" fill="black"/>
</svg>
