<svg width="48" height="48" viewBox="0 0 48 48" fill="none" xmlns="http://www.w3.org/2000/svg">
<path d="M20 35.1L16.46 38.54C15.5317 39.4683 14.2727 39.9898 12.96 39.9898C11.6472 39.9898 10.3882 39.4683 9.45998 38.54C8.53172 37.6118 8.01023 36.3528 8.01023 35.04C8.01023 33.7273 8.53172 32.4683 9.45998 31.54L18.54 22.44C19.4312 21.5459 20.632 21.0286 21.894 20.9951C23.156 20.9616 24.3826 21.4144 25.32 22.26L25.56 22.46C25.9392 22.8313 26.4505 23.0367 26.9812 23.0311C27.5119 23.0255 28.0187 22.8093 28.39 22.43C28.7613 22.0507 28.9667 21.5395 28.9611 21.0088C28.9555 20.4781 28.7392 19.9713 28.36 19.6C28.2471 19.4541 28.1269 19.3139 28 19.18C26.2927 17.6946 24.0846 16.9137 21.8231 16.9954C19.5616 17.0771 17.4156 18.0153 15.82 19.62L6.61998 28.72C5.05669 30.4216 4.21122 32.6613 4.26013 34.9715C4.30904 37.2817 5.24854 39.4836 6.88244 41.1175C8.51634 42.7514 10.7183 43.6909 13.0285 43.7399C15.3386 43.7888 17.5784 42.9433 19.28 41.38L22.74 38C23.0816 37.6273 23.2694 37.139 23.2656 36.6335C23.2618 36.1279 23.0666 35.6425 22.7194 35.275C22.3722 34.9075 21.8987 34.6852 21.3941 34.6527C20.8896 34.6202 20.3914 34.78 20 35.1ZM41.38 6.62001C39.6975 4.94802 37.4219 4.00958 35.05 4.00958C32.678 4.00958 30.4024 4.94802 28.72 6.62001L25.26 10C24.9183 10.3727 24.7305 10.861 24.7344 11.3665C24.7382 11.8721 24.9333 12.3575 25.2806 12.725C25.6278 13.0925 26.1013 13.3148 26.6058 13.3473C27.1104 13.3798 27.6085 13.22 28 12.9L31.46 9.46001C32.3882 8.53175 33.6472 8.01026 34.96 8.01026C36.2727 8.01026 37.5317 8.53175 38.46 9.46001C39.3882 10.3883 39.9097 11.6473 39.9097 12.96C39.9097 14.2728 39.3882 15.5317 38.46 16.46L29.38 25.56C28.4888 26.4541 27.2879 26.9714 26.026 27.005C24.764 27.0385 23.5374 26.5856 22.6 25.74L22.36 25.54C21.9807 25.1687 21.4695 24.9633 20.9388 24.9689C20.408 24.9745 19.9013 25.1907 19.53 25.57C19.1587 25.9493 18.9532 26.4605 18.9589 26.9912C18.9645 27.5219 19.1807 28.0287 19.56 28.4C19.7053 28.5486 19.8588 28.6888 20.02 28.82C21.7293 30.3009 23.9364 31.0789 26.1966 30.9973C28.4567 30.9156 30.6019 29.9804 32.2 28.38L41.3 19.28C42.9826 17.6082 43.9355 15.3385 43.9505 12.9665C43.9655 10.5945 43.0414 8.31299 41.38 6.62001Z" fill="black"/>
</svg>
