<svg width="48" height="48" viewBox="0 0 48 48" fill="none" xmlns="http://www.w3.org/2000/svg">
<path fill-rule="evenodd" clip-rule="evenodd" d="M23.3022 5.18872C23.514 5.06513 23.7548 5 24 5C24.2452 5 24.486 5.06513 24.6978 5.18872L28.8517 7.61272C29.1589 7.80263 29.3797 8.10505 29.4671 8.45549C29.5545 8.80592 29.5015 9.17662 29.3194 9.48852C29.1373 9.80042 28.8405 10.0288 28.4924 10.125C28.1443 10.2212 27.7724 10.1776 27.456 10.0035L24 7.98749L20.544 10.0035C20.3868 10.1007 20.2118 10.1654 20.0292 10.1938C19.8467 10.2223 19.6602 10.2139 19.481 10.1692C19.3017 10.1245 19.1331 10.0444 18.9853 9.93356C18.8375 9.82272 18.7133 9.6834 18.6201 9.52383C18.527 9.36425 18.4667 9.18764 18.4429 9.00441C18.419 8.82118 18.4321 8.63503 18.4813 8.45692C18.5305 8.27882 18.6149 8.11238 18.7295 7.96739C18.844 7.8224 18.9864 7.70181 19.1483 7.61272L23.3022 5.18872ZM12.7348 12.9573C12.9194 13.2744 12.9705 13.6518 12.8771 14.0066C12.7836 14.3614 12.5532 14.6646 12.2363 14.8496L10.1317 16.0773L12.2363 17.305C12.3982 17.3941 12.5406 17.5147 12.6551 17.6597C12.7697 17.8047 12.8541 17.9711 12.9033 18.1492C12.9525 18.3273 12.9656 18.5135 12.9417 18.6967C12.9179 18.8799 12.8576 19.0566 12.7645 19.2161C12.6713 19.3757 12.5472 19.515 12.3993 19.6259C12.2515 19.7367 12.083 19.8169 11.9037 19.8616C11.7244 19.9063 11.538 19.9146 11.3554 19.8861C11.1728 19.8577 10.9978 19.793 10.8406 19.6958L8.76923 18.4884V20.2312C8.76923 20.5984 8.62335 20.9506 8.36369 21.2102C8.10402 21.4699 7.75184 21.6158 7.38462 21.6158C7.01739 21.6158 6.66521 21.4699 6.40554 21.2102C6.14588 20.9506 6 20.5984 6 20.2312V16.0773C5.99993 15.8353 6.0633 15.5975 6.1838 15.3876C6.3043 15.1777 6.47772 15.003 6.68677 14.881L10.8406 12.4589C10.9977 12.3672 11.1713 12.3073 11.3515 12.2828C11.5318 12.2582 11.7151 12.2694 11.891 12.3157C12.0669 12.362 12.2319 12.4425 12.3767 12.5526C12.5215 12.6627 12.6432 12.8002 12.7348 12.9573ZM35.2652 12.9573C35.3568 12.8002 35.4785 12.6627 35.6233 12.5526C35.7681 12.4425 35.9331 12.362 36.109 12.3157C36.2849 12.2694 36.4682 12.2582 36.6485 12.2828C36.8287 12.3073 37.0023 12.3672 37.1594 12.4589L41.3132 14.881C41.5223 15.003 41.6957 15.1777 41.8162 15.3876C41.9367 15.5975 42.0001 15.8353 42 16.0773V20.2312C42 20.5984 41.8541 20.9506 41.5945 21.2102C41.3348 21.4699 40.9826 21.6158 40.6154 21.6158C40.2482 21.6158 39.896 21.4699 39.6363 21.2102C39.3766 20.9506 39.2308 20.5984 39.2308 20.2312V18.4884L37.1594 19.6958C37.0022 19.793 36.8272 19.8577 36.6446 19.8861C36.462 19.9146 36.2756 19.9063 36.0963 19.8616C35.917 19.8169 35.7485 19.7367 35.6007 19.6259C35.4528 19.515 35.3287 19.3757 35.2355 19.2161C35.1424 19.0566 35.0821 18.8799 35.0583 18.6967C35.0344 18.5135 35.0475 18.3273 35.0967 18.1492C35.1459 17.9711 35.2303 17.8047 35.3449 17.6597C35.4594 17.5147 35.6018 17.3941 35.7637 17.305L37.8683 16.0773L35.7637 14.8496C35.4468 14.6646 35.2164 14.3614 35.1229 14.0066C35.0295 13.6518 35.0806 13.2744 35.2652 12.9573ZM18.6498 22.6496C18.7415 22.4925 18.8631 22.355 19.0079 22.2449C19.1527 22.1348 19.3178 22.0543 19.4937 22.008C19.6696 21.9617 19.8529 21.9505 20.0331 21.9751C20.2133 21.9997 20.3869 22.0595 20.544 22.1512L24 24.1672L27.456 22.1512C27.6132 22.054 27.7882 21.9893 27.9708 21.9608C28.1533 21.9324 28.3398 21.9407 28.5191 21.9854C28.6983 22.0301 28.8669 22.1103 29.0147 22.2211C29.1625 22.332 29.2867 22.4713 29.3799 22.6308C29.473 22.7904 29.5333 22.967 29.5571 23.1503C29.581 23.3335 29.5679 23.5196 29.5187 23.6977C29.4695 23.8758 29.3851 24.0423 29.2705 24.1873C29.156 24.3323 29.0136 24.4529 28.8517 24.5419L25.3846 26.5653V29.9235C25.3846 30.2907 25.2387 30.6429 24.9791 30.9026C24.7194 31.1622 24.3672 31.3081 24 31.3081C23.6328 31.3081 23.2806 31.1622 23.0209 30.9026C22.7613 30.6429 22.6154 30.2907 22.6154 29.9235V26.5635L19.1483 24.5419C18.8315 24.3569 18.601 24.0537 18.5075 23.6989C18.4141 23.3441 18.4653 22.9667 18.6498 22.6496ZM7.38462 27.1543C7.75184 27.1543 8.10402 27.3001 8.36369 27.5598C8.62335 27.8195 8.76923 28.1716 8.76923 28.5389V31.8989L12.2363 33.9204C12.3982 34.0095 12.5406 34.1301 12.6551 34.2751C12.7697 34.4201 12.8541 34.5865 12.9033 34.7646C12.9525 34.9427 12.9656 35.1289 12.9417 35.3121C12.9179 35.4953 12.8576 35.6719 12.7645 35.8315C12.6713 35.9911 12.5472 36.1304 12.3993 36.2413C12.2515 36.3521 12.083 36.4322 11.9037 36.4769C11.7244 36.5216 11.538 36.53 11.3554 36.5015C11.1728 36.4731 10.9978 36.4083 10.8406 36.3112L6.68677 33.889C6.47772 33.767 6.3043 33.5924 6.1838 33.3825C6.0633 33.1726 5.99993 32.9348 6 32.6927V28.5389C6 28.1716 6.14588 27.8195 6.40554 27.5598C6.66521 27.3001 7.01739 27.1543 7.38462 27.1543ZM40.6154 27.1543C40.9826 27.1543 41.3348 27.3001 41.5945 27.5598C41.8541 27.8195 42 28.1716 42 28.5389V32.6927C42.0001 32.9348 41.9367 33.1726 41.8162 33.3825C41.6957 33.5924 41.5223 33.767 41.3132 33.889L37.1594 36.3112C37.0022 36.4083 36.8272 36.4731 36.6446 36.5015C36.462 36.53 36.2756 36.5216 36.0963 36.4769C35.917 36.4322 35.7485 36.3521 35.6007 36.2413C35.4528 36.1304 35.3287 35.9911 35.2355 35.8315C35.1424 35.6719 35.0821 35.4953 35.0583 35.3121C35.0344 35.1289 35.0475 34.9427 35.0967 34.7646C35.1459 34.5865 35.2303 34.4201 35.3449 34.2751C35.4594 34.1301 35.6018 34.0095 35.7637 33.9204L39.2308 31.897V28.5389C39.2308 28.1716 39.3766 27.8195 39.6363 27.5598C39.896 27.3001 40.2482 27.1543 40.6154 27.1543ZM24 36.8466C24.3672 36.8466 24.7194 36.9924 24.9791 37.2521C25.2387 37.5118 25.3846 37.864 25.3846 38.2312V39.9739L27.456 38.7666C27.6132 38.6694 27.7882 38.6047 27.9708 38.5762C28.1533 38.5477 28.3398 38.5561 28.5191 38.6008C28.6983 38.6455 28.8669 38.7256 29.0147 38.8365C29.1625 38.9473 29.2867 39.0866 29.3799 39.2462C29.473 39.4058 29.5333 39.5824 29.5571 39.7656C29.581 39.9489 29.5679 40.135 29.5187 40.3131C29.4695 40.4912 29.3851 40.6577 29.2705 40.8027C29.156 40.9476 29.0136 41.0682 28.8517 41.1573L24.6978 43.5813C24.486 43.7049 24.2452 43.7701 24 43.7701C23.7548 43.7701 23.514 43.7049 23.3022 43.5813L19.1483 41.1573C18.9864 41.0682 18.844 40.9476 18.7295 40.8027C18.6149 40.6577 18.5305 40.4912 18.4813 40.3131C18.4321 40.135 18.419 39.9489 18.4429 39.7656C18.4667 39.5824 18.527 39.4058 18.6201 39.2462C18.7133 39.0866 18.8375 38.9473 18.9853 38.8365C19.1331 38.7256 19.3017 38.6455 19.481 38.6008C19.6602 38.5561 19.8467 38.5477 20.0292 38.5762C20.2118 38.6047 20.3868 38.6694 20.544 38.7666L22.6154 39.9739V38.2312C22.6154 37.864 22.7613 37.5118 23.0209 37.2521C23.2806 36.9924 23.6328 36.8466 24 36.8466Z" fill="black"/>
</svg>
